<svg xmlns="http://www.w3.org/2000/svg" xmlns:xlink="http://www.w3.org/1999/xlink" width="2000" zoomAndPan="magnify" viewBox="0 0 1500 1499.999933" height="2000" preserveAspectRatio="xMidYMid meet" version="1.0"><defs><g/><clipPath id="149265bc5a"><path d="M 349.039062 598.917969 L 552.289062 598.917969 L 552.289062 802.167969 L 349.039062 802.167969 Z M 349.039062 598.917969 " clip-rule="nonzero"/></clipPath><clipPath id="7e7ba6ea51"><path d="M 349.039062 663.417969 C 349.039062 660.773438 350.121094 658.335938 351.816406 656.640625 C 353.578125 654.878906 355.949219 653.796875 358.589844 653.796875 C 361.234375 653.796875 363.671875 654.878906 365.367188 656.640625 C 366.042969 657.320312 366.652344 658.0625 367.058594 658.945312 L 388.671875 658.945312 L 388.671875 653.390625 C 388.671875 649.257812 390.296875 645.597656 393.007812 642.886719 C 395.71875 640.179688 399.375 638.550781 403.507812 638.550781 L 409.066406 638.550781 L 409.066406 616.941406 C 408.183594 616.53125 407.4375 615.921875 406.761719 615.246094 C 405 613.550781 403.914062 611.113281 403.914062 608.472656 C 403.914062 605.828125 405 603.457031 406.761719 601.695312 C 408.457031 600.003906 410.894531 598.917969 413.535156 598.917969 C 416.179688 598.917969 418.550781 600.003906 420.242188 601.695312 C 422.003906 603.457031 423.089844 605.828125 423.089844 608.472656 C 423.089844 611.113281 422.003906 613.550781 420.242188 615.246094 C 419.566406 615.921875 418.820312 616.53125 417.941406 616.941406 L 417.941406 638.550781 L 446.125 638.550781 L 446.125 616.941406 C 445.3125 616.53125 444.5 615.921875 443.820312 615.246094 C 442.125 613.550781 441.042969 611.113281 441.042969 608.472656 C 441.042969 605.828125 442.125 603.457031 443.820312 601.695312 C 445.582031 600.003906 447.953125 598.917969 450.59375 598.917969 C 453.238281 598.917969 455.609375 600.003906 457.371094 601.695312 C 459.132812 603.457031 460.148438 605.828125 460.148438 608.472656 C 460.148438 611.113281 459.132812 613.550781 457.371094 615.246094 C 456.691406 615.921875 455.949219 616.53125 455.066406 616.941406 L 455.066406 638.550781 L 483.25 638.550781 L 483.25 616.941406 C 482.371094 616.53125 481.625 615.921875 480.949219 615.246094 C 479.1875 613.550781 478.171875 611.113281 478.171875 608.472656 C 478.171875 605.828125 479.1875 603.457031 480.949219 601.695312 C 482.640625 600.003906 485.082031 598.917969 487.722656 598.917969 C 490.363281 598.917969 492.734375 600.003906 494.496094 601.695312 C 496.191406 603.457031 497.277344 605.828125 497.277344 608.472656 C 497.277344 611.113281 496.191406 613.550781 494.496094 615.246094 C 493.820312 615.921875 493.007812 616.53125 492.125 616.941406 L 492.125 638.550781 L 497.75 638.550781 C 501.816406 638.550781 505.539062 640.179688 508.183594 642.886719 C 510.894531 645.597656 512.585938 649.257812 512.585938 653.390625 L 512.585938 658.945312 L 534.132812 658.945312 C 534.605469 658.0625 535.148438 657.320312 535.824219 656.640625 C 537.585938 654.878906 539.957031 653.796875 542.601562 653.796875 C 545.242188 653.796875 547.613281 654.878906 549.375 656.640625 C 551.136719 658.335938 552.152344 660.773438 552.152344 663.417969 C 552.152344 666.058594 551.136719 668.429688 549.375 670.125 C 547.613281 671.886719 545.242188 672.96875 542.601562 672.96875 C 539.957031 672.96875 537.585938 671.886719 535.824219 670.125 C 535.148438 669.445312 534.605469 668.699219 534.132812 667.820312 L 512.585938 667.820312 L 512.585938 696.003906 L 534.132812 696.003906 C 534.605469 695.191406 535.148438 694.378906 535.824219 693.699219 C 537.585938 692.007812 539.957031 690.921875 542.601562 690.921875 C 545.242188 690.921875 547.613281 692.007812 549.375 693.699219 C 551.136719 695.460938 552.152344 697.832031 552.152344 700.476562 C 552.152344 703.117188 551.136719 705.488281 549.375 707.25 C 547.613281 709.011719 545.242188 710.027344 542.601562 710.027344 C 539.957031 710.027344 537.585938 709.011719 535.824219 707.25 C 535.148438 706.574219 534.605469 705.828125 534.132812 704.945312 L 512.585938 704.945312 L 512.585938 733.132812 L 534.132812 733.132812 C 534.605469 732.25 535.148438 731.503906 535.824219 730.828125 C 537.585938 729.066406 539.957031 728.050781 542.601562 728.050781 C 545.242188 728.050781 547.613281 729.066406 549.375 730.828125 C 551.136719 732.519531 552.152344 734.960938 552.152344 737.601562 C 552.152344 740.246094 551.136719 742.617188 549.375 744.378906 C 547.613281 746.070312 545.242188 747.15625 542.601562 747.15625 C 539.957031 747.15625 537.585938 746.070312 535.824219 744.378906 C 535.148438 743.699219 534.605469 742.886719 534.132812 742.007812 L 512.585938 742.007812 L 512.585938 747.628906 C 512.585938 751.695312 510.894531 755.421875 508.183594 758.0625 C 505.539062 760.773438 501.816406 762.464844 497.75 762.464844 L 492.125 762.464844 L 492.125 784.011719 C 493.007812 784.484375 493.820312 785.027344 494.496094 785.703125 C 496.191406 787.464844 497.277344 789.835938 497.277344 792.480469 C 497.277344 795.121094 496.191406 797.492188 494.496094 799.253906 C 492.734375 801.015625 490.363281 802.03125 487.722656 802.03125 C 485.082031 802.03125 482.640625 801.015625 480.949219 799.253906 C 479.1875 797.492188 478.171875 795.121094 478.171875 792.480469 C 478.171875 789.835938 479.1875 787.464844 480.949219 785.703125 C 481.625 785.027344 482.371094 784.484375 483.25 784.011719 L 483.25 762.464844 L 455.066406 762.464844 L 455.066406 784.011719 C 455.949219 784.484375 456.691406 785.027344 457.371094 785.703125 C 459.132812 787.464844 460.148438 789.835938 460.148438 792.480469 C 460.148438 795.121094 459.132812 797.492188 457.371094 799.253906 C 455.609375 801.015625 453.238281 802.03125 450.59375 802.03125 C 447.953125 802.03125 445.582031 801.015625 443.820312 799.253906 C 442.125 797.492188 441.042969 795.121094 441.042969 792.480469 C 441.042969 789.835938 442.125 787.464844 443.820312 785.703125 C 444.5 785.027344 445.3125 784.484375 446.125 784.011719 L 446.125 762.464844 L 417.941406 762.464844 L 417.941406 784.011719 C 418.820312 784.484375 419.566406 785.027344 420.242188 785.703125 C 422.003906 787.464844 423.089844 789.835938 423.089844 792.480469 C 423.089844 795.121094 422.003906 797.492188 420.242188 799.253906 C 418.550781 801.015625 416.179688 802.03125 413.535156 802.03125 C 410.894531 802.03125 408.457031 801.015625 406.761719 799.253906 C 405 797.492188 403.914062 795.121094 403.914062 792.480469 C 403.914062 789.835938 405 787.464844 406.761719 785.703125 C 407.4375 785.027344 408.183594 784.484375 409.066406 784.011719 L 409.066406 762.464844 L 403.507812 762.464844 C 399.375 762.464844 395.71875 760.773438 393.007812 758.0625 C 390.296875 755.421875 388.671875 751.695312 388.671875 747.628906 L 388.671875 742.007812 L 367.058594 742.007812 C 366.652344 742.886719 366.042969 743.699219 365.367188 744.378906 C 363.671875 746.070312 361.234375 747.15625 358.589844 747.15625 C 355.949219 747.15625 353.578125 746.070312 351.816406 744.378906 C 350.121094 742.617188 349.039062 740.246094 349.039062 737.601562 C 349.039062 734.960938 350.121094 732.519531 351.816406 730.828125 C 353.578125 729.066406 355.949219 728.050781 358.589844 728.050781 C 361.234375 728.050781 363.671875 729.066406 365.367188 730.828125 C 366.042969 731.503906 366.652344 732.25 367.058594 733.132812 L 388.671875 733.132812 L 388.671875 704.945312 L 367.058594 704.945312 C 366.652344 705.828125 366.042969 706.574219 365.367188 707.25 C 363.671875 709.011719 361.234375 710.027344 358.589844 710.027344 C 355.949219 710.027344 353.578125 709.011719 351.816406 707.25 C 350.121094 705.488281 349.039062 703.117188 349.039062 700.476562 C 349.039062 697.832031 350.121094 695.460938 351.816406 693.699219 C 353.578125 692.007812 355.949219 690.921875 358.589844 690.921875 C 361.234375 690.921875 363.671875 692.007812 365.367188 693.699219 C 366.042969 694.378906 366.652344 695.191406 367.058594 696.003906 L 388.671875 696.003906 L 388.671875 667.820312 L 367.058594 667.820312 C 366.652344 668.699219 366.042969 669.445312 365.367188 670.125 C 363.671875 671.886719 361.234375 672.96875 358.589844 672.96875 C 355.949219 672.96875 353.578125 671.886719 351.816406 670.125 C 350.121094 668.429688 349.039062 666.058594 349.039062 663.417969 Z M 420.242188 658.945312 L 481.015625 658.945312 C 484.0625 658.945312 486.84375 660.164062 488.875 662.195312 C 490.90625 664.230469 492.125 667.007812 492.125 670.125 L 492.125 730.894531 C 492.125 733.945312 490.90625 736.722656 488.875 738.753906 C 486.84375 740.785156 484.0625 742.007812 481.015625 742.007812 L 420.242188 742.007812 C 417.128906 742.007812 414.347656 740.785156 412.316406 738.753906 C 410.285156 736.722656 409.066406 733.945312 409.066406 730.894531 L 409.066406 670.125 C 409.066406 667.007812 410.285156 664.230469 412.316406 662.195312 C 414.347656 660.164062 417.128906 658.945312 420.242188 658.945312 Z M 481.015625 667.820312 L 420.242188 667.820312 C 419.566406 667.820312 419.023438 668.089844 418.617188 668.496094 C 418.210938 668.902344 417.941406 669.445312 417.941406 670.125 L 417.941406 730.894531 C 417.941406 731.503906 418.210938 732.046875 418.617188 732.453125 C 419.023438 732.859375 419.566406 733.132812 420.242188 733.132812 L 481.015625 733.132812 C 481.625 733.132812 482.167969 732.859375 482.574219 732.453125 C 482.980469 732.046875 483.25 731.503906 483.25 730.894531 L 483.25 716.804688 L 470.445312 716.804688 L 470.445312 707.929688 L 483.25 707.929688 L 483.25 693.089844 L 453.238281 693.089844 L 453.238281 684.148438 L 483.25 684.148438 L 483.25 670.125 C 483.25 669.445312 482.980469 668.902344 482.574219 668.496094 C 482.167969 668.089844 481.625 667.820312 481.015625 667.820312 Z M 497.75 647.425781 L 403.507812 647.425781 C 401.882812 647.425781 400.394531 648.105469 399.308594 649.1875 C 398.226562 650.273438 397.546875 651.761719 397.546875 653.390625 L 397.546875 747.628906 C 397.546875 749.253906 398.226562 750.679688 399.308594 751.761719 C 400.394531 752.847656 401.882812 753.523438 403.507812 753.523438 L 497.75 753.523438 C 499.375 753.523438 500.796875 752.847656 501.882812 751.761719 C 502.964844 750.679688 503.644531 749.253906 503.644531 747.628906 L 503.644531 653.390625 C 503.644531 651.761719 502.964844 650.273438 501.882812 649.1875 C 500.796875 648.105469 499.375 647.425781 497.75 647.425781 Z M 497.75 647.425781 " clip-rule="evenodd"/></clipPath><linearGradient x1="-2.796824" gradientTransform="matrix(6.775, 0, 0, 6.775, 349.038468, 598.918163)" y1="9.07948" x2="33.019621" gradientUnits="userSpaceOnUse" y2="20.112299" id="f59d7b1f15"><stop stop-opacity="1" stop-color="rgb(4.922485%, 28.75061%, 74.632263%)" offset="0"/><stop stop-opacity="1" stop-color="rgb(4.956055%, 28.994751%, 74.700928%)" offset="0.00390625"/><stop stop-opacity="1" stop-color="rgb(4.989624%, 29.240417%, 74.769592%)" offset="0.0078125"/><stop stop-opacity="1" stop-color="rgb(5.023193%, 29.484558%, 74.838257%)" offset="0.0117187"/><stop stop-opacity="1" stop-color="rgb(5.058289%, 29.730225%, 74.906921%)" offset="0.015625"/><stop stop-opacity="1" stop-color="rgb(5.091858%, 29.975891%, 74.975586%)" offset="0.0195312"/><stop stop-opacity="1" stop-color="rgb(5.125427%, 30.221558%, 75.04425%)" offset="0.0234375"/><stop stop-opacity="1" stop-color="rgb(5.158997%, 30.465698%, 75.112915%)" offset="0.0273437"/><stop stop-opacity="1" stop-color="rgb(5.192566%, 30.711365%, 75.18158%)" offset="0.03125"/><stop stop-opacity="1" stop-color="rgb(5.226135%, 30.955505%, 75.250244%)" offset="0.0351562"/><stop stop-opacity="1" stop-color="rgb(5.259705%, 31.201172%, 75.318909%)" offset="0.0390625"/><stop stop-opacity="1" stop-color="rgb(5.293274%, 31.446838%, 75.387573%)" offset="0.0429687"/><stop stop-opacity="1" stop-color="rgb(5.326843%, 31.692505%, 75.456238%)" offset="0.046875"/><stop stop-opacity="1" stop-color="rgb(5.360413%, 31.936646%, 75.524902%)" offset="0.0507812"/><stop stop-opacity="1" stop-color="rgb(5.395508%, 32.182312%, 75.593567%)" offset="0.0546875"/><stop stop-opacity="1" stop-color="rgb(5.429077%, 32.426453%, 75.662231%)" offset="0.0585938"/><stop stop-opacity="1" stop-color="rgb(5.462646%, 32.672119%, 75.730896%)" offset="0.0625"/><stop stop-opacity="1" stop-color="rgb(5.496216%, 32.917786%, 75.799561%)" offset="0.0664062"/><stop stop-opacity="1" stop-color="rgb(5.529785%, 33.163452%, 75.869751%)" offset="0.0703125"/><stop stop-opacity="1" stop-color="rgb(5.563354%, 33.407593%, 75.938416%)" offset="0.0742188"/><stop stop-opacity="1" stop-color="rgb(5.596924%, 33.653259%, 76.00708%)" offset="0.078125"/><stop stop-opacity="1" stop-color="rgb(5.630493%, 33.8974%, 76.075745%)" offset="0.0820312"/><stop stop-opacity="1" stop-color="rgb(5.664062%, 34.143066%, 76.144409%)" offset="0.0859375"/><stop stop-opacity="1" stop-color="rgb(5.697632%, 34.388733%, 76.213074%)" offset="0.0898437"/><stop stop-opacity="1" stop-color="rgb(5.731201%, 34.634399%, 76.281738%)" offset="0.09375"/><stop stop-opacity="1" stop-color="rgb(5.764771%, 34.87854%, 76.350403%)" offset="0.0976562"/><stop stop-opacity="1" stop-color="rgb(5.799866%, 35.124207%, 76.419067%)" offset="0.101562"/><stop stop-opacity="1" stop-color="rgb(5.833435%, 35.368347%, 76.487732%)" offset="0.105469"/><stop stop-opacity="1" stop-color="rgb(5.867004%, 35.614014%, 76.556396%)" offset="0.109375"/><stop stop-opacity="1" stop-color="rgb(5.900574%, 35.85968%, 76.625061%)" offset="0.113281"/><stop stop-opacity="1" stop-color="rgb(5.934143%, 36.105347%, 76.693726%)" offset="0.117188"/><stop stop-opacity="1" stop-color="rgb(5.967712%, 36.349487%, 76.76239%)" offset="0.121094"/><stop stop-opacity="1" stop-color="rgb(6.001282%, 36.595154%, 76.831055%)" offset="0.125"/><stop stop-opacity="1" stop-color="rgb(6.034851%, 36.839294%, 76.899719%)" offset="0.128906"/><stop stop-opacity="1" stop-color="rgb(6.06842%, 37.084961%, 76.968384%)" offset="0.132812"/><stop stop-opacity="1" stop-color="rgb(6.10199%, 37.330627%, 77.037048%)" offset="0.136719"/><stop stop-opacity="1" stop-color="rgb(6.135559%, 37.576294%, 77.105713%)" offset="0.140625"/><stop stop-opacity="1" stop-color="rgb(6.169128%, 37.820435%, 77.174377%)" offset="0.144531"/><stop stop-opacity="1" stop-color="rgb(6.204224%, 38.066101%, 77.243042%)" offset="0.148438"/><stop stop-opacity="1" stop-color="rgb(6.237793%, 38.310242%, 77.311707%)" offset="0.152344"/><stop stop-opacity="1" stop-color="rgb(6.271362%, 38.555908%, 77.380371%)" offset="0.15625"/><stop stop-opacity="1" stop-color="rgb(6.304932%, 38.801575%, 77.449036%)" offset="0.160156"/><stop stop-opacity="1" stop-color="rgb(6.338501%, 39.047241%, 77.519226%)" offset="0.164063"/><stop stop-opacity="1" stop-color="rgb(6.37207%, 39.291382%, 77.587891%)" offset="0.167969"/><stop stop-opacity="1" stop-color="rgb(6.40564%, 39.537048%, 77.656555%)" offset="0.171875"/><stop stop-opacity="1" stop-color="rgb(6.439209%, 39.781189%, 77.72522%)" offset="0.175781"/><stop stop-opacity="1" stop-color="rgb(6.472778%, 40.026855%, 77.793884%)" offset="0.179688"/><stop stop-opacity="1" stop-color="rgb(6.506348%, 40.270996%, 77.862549%)" offset="0.183594"/><stop stop-opacity="1" stop-color="rgb(6.539917%, 40.516663%, 77.931213%)" offset="0.1875"/><stop stop-opacity="1" stop-color="rgb(6.573486%, 40.762329%, 77.999878%)" offset="0.191406"/><stop stop-opacity="1" stop-color="rgb(6.608582%, 41.007996%, 78.068542%)" offset="0.195313"/><stop stop-opacity="1" stop-color="rgb(6.642151%, 41.252136%, 78.137207%)" offset="0.199219"/><stop stop-opacity="1" stop-color="rgb(6.67572%, 41.497803%, 78.205872%)" offset="0.203125"/><stop stop-opacity="1" stop-color="rgb(6.70929%, 41.741943%, 78.274536%)" offset="0.207031"/><stop stop-opacity="1" stop-color="rgb(6.742859%, 41.98761%, 78.343201%)" offset="0.210938"/><stop stop-opacity="1" stop-color="rgb(6.776428%, 42.233276%, 78.411865%)" offset="0.214844"/><stop stop-opacity="1" stop-color="rgb(6.809998%, 42.478943%, 78.48053%)" offset="0.21875"/><stop stop-opacity="1" stop-color="rgb(6.843567%, 42.723083%, 78.549194%)" offset="0.222656"/><stop stop-opacity="1" stop-color="rgb(6.877136%, 42.96875%, 78.617859%)" offset="0.226562"/><stop stop-opacity="1" stop-color="rgb(6.910706%, 43.212891%, 78.686523%)" offset="0.230469"/><stop stop-opacity="1" stop-color="rgb(6.945801%, 43.458557%, 78.755188%)" offset="0.234375"/><stop stop-opacity="1" stop-color="rgb(6.97937%, 43.704224%, 78.823853%)" offset="0.238281"/><stop stop-opacity="1" stop-color="rgb(7.012939%, 43.94989%, 78.892517%)" offset="0.242188"/><stop stop-opacity="1" stop-color="rgb(7.046509%, 44.194031%, 78.961182%)" offset="0.246094"/><stop stop-opacity="1" stop-color="rgb(7.080078%, 44.439697%, 79.031372%)" offset="0.25"/><stop stop-opacity="1" stop-color="rgb(7.113647%, 44.683838%, 79.100037%)" offset="0.253906"/><stop stop-opacity="1" stop-color="rgb(7.147217%, 44.929504%, 79.168701%)" offset="0.257812"/><stop stop-opacity="1" stop-color="rgb(7.180786%, 45.175171%, 79.237366%)" offset="0.261719"/><stop stop-opacity="1" stop-color="rgb(7.214355%, 45.420837%, 79.30603%)" offset="0.265625"/><stop stop-opacity="1" stop-color="rgb(7.247925%, 45.664978%, 79.374695%)" offset="0.269531"/><stop stop-opacity="1" stop-color="rgb(7.281494%, 45.910645%, 79.443359%)" offset="0.273438"/><stop stop-opacity="1" stop-color="rgb(7.315063%, 46.154785%, 79.512024%)" offset="0.277344"/><stop stop-opacity="1" stop-color="rgb(7.350159%, 46.400452%, 79.580688%)" offset="0.28125"/><stop stop-opacity="1" stop-color="rgb(7.383728%, 46.646118%, 79.649353%)" offset="0.285156"/><stop stop-opacity="1" stop-color="rgb(7.417297%, 46.891785%, 79.718018%)" offset="0.289062"/><stop stop-opacity="1" stop-color="rgb(7.450867%, 47.135925%, 79.786682%)" offset="0.292969"/><stop stop-opacity="1" stop-color="rgb(7.484436%, 47.381592%, 79.855347%)" offset="0.296875"/><stop stop-opacity="1" stop-color="rgb(7.518005%, 47.625732%, 79.924011%)" offset="0.300781"/><stop stop-opacity="1" stop-color="rgb(7.551575%, 47.871399%, 79.992676%)" offset="0.304688"/><stop stop-opacity="1" stop-color="rgb(7.585144%, 48.117065%, 80.06134%)" offset="0.308594"/><stop stop-opacity="1" stop-color="rgb(7.618713%, 48.362732%, 80.130005%)" offset="0.3125"/><stop stop-opacity="1" stop-color="rgb(7.652283%, 48.606873%, 80.198669%)" offset="0.316406"/><stop stop-opacity="1" stop-color="rgb(7.685852%, 48.852539%, 80.267334%)" offset="0.320313"/><stop stop-opacity="1" stop-color="rgb(7.719421%, 49.09668%, 80.335999%)" offset="0.324219"/><stop stop-opacity="1" stop-color="rgb(7.754517%, 49.342346%, 80.404663%)" offset="0.328125"/><stop stop-opacity="1" stop-color="rgb(7.788086%, 49.588013%, 80.473328%)" offset="0.332031"/><stop stop-opacity="1" stop-color="rgb(7.821655%, 49.833679%, 80.541992%)" offset="0.335938"/><stop stop-opacity="1" stop-color="rgb(7.855225%, 50.07782%, 80.610657%)" offset="0.339844"/><stop stop-opacity="1" stop-color="rgb(7.888794%, 50.323486%, 80.680847%)" offset="0.34375"/><stop stop-opacity="1" stop-color="rgb(7.922363%, 50.567627%, 80.749512%)" offset="0.347656"/><stop stop-opacity="1" stop-color="rgb(7.955933%, 50.813293%, 80.818176%)" offset="0.351562"/><stop stop-opacity="1" stop-color="rgb(7.989502%, 51.05896%, 80.886841%)" offset="0.355469"/><stop stop-opacity="1" stop-color="rgb(8.023071%, 51.304626%, 80.955505%)" offset="0.359375"/><stop stop-opacity="1" stop-color="rgb(8.056641%, 51.548767%, 81.02417%)" offset="0.363281"/><stop stop-opacity="1" stop-color="rgb(8.091736%, 51.794434%, 81.092834%)" offset="0.367188"/><stop stop-opacity="1" stop-color="rgb(8.125305%, 52.038574%, 81.161499%)" offset="0.371094"/><stop stop-opacity="1" stop-color="rgb(8.158875%, 52.284241%, 81.230164%)" offset="0.375"/><stop stop-opacity="1" stop-color="rgb(8.192444%, 52.529907%, 81.298828%)" offset="0.378906"/><stop stop-opacity="1" stop-color="rgb(8.226013%, 52.775574%, 81.367493%)" offset="0.382812"/><stop stop-opacity="1" stop-color="rgb(8.259583%, 53.019714%, 81.436157%)" offset="0.386719"/><stop stop-opacity="1" stop-color="rgb(8.293152%, 53.265381%, 81.504822%)" offset="0.390625"/><stop stop-opacity="1" stop-color="rgb(8.326721%, 53.509521%, 81.573486%)" offset="0.394531"/><stop stop-opacity="1" stop-color="rgb(8.360291%, 53.755188%, 81.642151%)" offset="0.398438"/><stop stop-opacity="1" stop-color="rgb(8.39386%, 54.000854%, 81.710815%)" offset="0.402344"/><stop stop-opacity="1" stop-color="rgb(8.427429%, 54.246521%, 81.77948%)" offset="0.40625"/><stop stop-opacity="1" stop-color="rgb(8.460999%, 54.490662%, 81.848145%)" offset="0.410156"/><stop stop-opacity="1" stop-color="rgb(8.496094%, 54.736328%, 81.916809%)" offset="0.414062"/><stop stop-opacity="1" stop-color="rgb(8.529663%, 54.980469%, 81.985474%)" offset="0.417969"/><stop stop-opacity="1" stop-color="rgb(8.563232%, 55.226135%, 82.054138%)" offset="0.421875"/><stop stop-opacity="1" stop-color="rgb(8.596802%, 55.471802%, 82.122803%)" offset="0.425781"/><stop stop-opacity="1" stop-color="rgb(8.630371%, 55.717468%, 82.191467%)" offset="0.429688"/><stop stop-opacity="1" stop-color="rgb(8.66394%, 55.961609%, 82.260132%)" offset="0.433594"/><stop stop-opacity="1" stop-color="rgb(8.69751%, 56.207275%, 82.330322%)" offset="0.4375"/><stop stop-opacity="1" stop-color="rgb(8.731079%, 56.451416%, 82.398987%)" offset="0.441406"/><stop stop-opacity="1" stop-color="rgb(8.764648%, 56.697083%, 82.467651%)" offset="0.445312"/><stop stop-opacity="1" stop-color="rgb(8.798218%, 56.942749%, 82.536316%)" offset="0.449219"/><stop stop-opacity="1" stop-color="rgb(8.831787%, 57.188416%, 82.60498%)" offset="0.453125"/><stop stop-opacity="1" stop-color="rgb(8.865356%, 57.432556%, 82.673645%)" offset="0.457031"/><stop stop-opacity="1" stop-color="rgb(8.900452%, 57.678223%, 82.74231%)" offset="0.460938"/><stop stop-opacity="1" stop-color="rgb(8.934021%, 57.922363%, 82.810974%)" offset="0.464844"/><stop stop-opacity="1" stop-color="rgb(8.96759%, 58.16803%, 82.879639%)" offset="0.46875"/><stop stop-opacity="1" stop-color="rgb(9.00116%, 58.413696%, 82.948303%)" offset="0.472656"/><stop stop-opacity="1" stop-color="rgb(9.034729%, 58.659363%, 83.016968%)" offset="0.476562"/><stop stop-opacity="1" stop-color="rgb(9.068298%, 58.903503%, 83.085632%)" offset="0.480469"/><stop stop-opacity="1" stop-color="rgb(9.101868%, 59.14917%, 83.154297%)" offset="0.484375"/><stop stop-opacity="1" stop-color="rgb(9.135437%, 59.393311%, 83.222961%)" offset="0.488281"/><stop stop-opacity="1" stop-color="rgb(9.169006%, 59.638977%, 83.291626%)" offset="0.492188"/><stop stop-opacity="1" stop-color="rgb(9.202576%, 59.884644%, 83.360291%)" offset="0.496094"/><stop stop-opacity="1" stop-color="rgb(9.237671%, 60.13031%, 83.428955%)" offset="0.5"/><stop stop-opacity="1" stop-color="rgb(9.27124%, 60.374451%, 83.49762%)" offset="0.503906"/><stop stop-opacity="1" stop-color="rgb(9.30481%, 60.620117%, 83.566284%)" offset="0.507812"/><stop stop-opacity="1" stop-color="rgb(9.338379%, 60.864258%, 83.634949%)" offset="0.511719"/><stop stop-opacity="1" stop-color="rgb(9.371948%, 61.109924%, 83.703613%)" offset="0.515625"/><stop stop-opacity="1" stop-color="rgb(9.405518%, 61.355591%, 83.772278%)" offset="0.519531"/><stop stop-opacity="1" stop-color="rgb(9.439087%, 61.601257%, 83.842468%)" offset="0.523438"/><stop stop-opacity="1" stop-color="rgb(9.472656%, 61.845398%, 83.911133%)" offset="0.527344"/><stop stop-opacity="1" stop-color="rgb(9.506226%, 62.091064%, 83.979797%)" offset="0.53125"/><stop stop-opacity="1" stop-color="rgb(9.539795%, 62.335205%, 84.048462%)" offset="0.535156"/><stop stop-opacity="1" stop-color="rgb(9.573364%, 62.580872%, 84.117126%)" offset="0.539062"/><stop stop-opacity="1" stop-color="rgb(9.606934%, 62.826538%, 84.185791%)" offset="0.542969"/><stop stop-opacity="1" stop-color="rgb(9.642029%, 63.072205%, 84.254456%)" offset="0.546875"/><stop stop-opacity="1" stop-color="rgb(9.675598%, 63.316345%, 84.32312%)" offset="0.550781"/><stop stop-opacity="1" stop-color="rgb(9.709167%, 63.562012%, 84.391785%)" offset="0.554688"/><stop stop-opacity="1" stop-color="rgb(9.742737%, 63.806152%, 84.460449%)" offset="0.558594"/><stop stop-opacity="1" stop-color="rgb(9.776306%, 64.051819%, 84.529114%)" offset="0.5625"/><stop stop-opacity="1" stop-color="rgb(9.809875%, 64.297485%, 84.597778%)" offset="0.566406"/><stop stop-opacity="1" stop-color="rgb(9.843445%, 64.543152%, 84.666443%)" offset="0.570312"/><stop stop-opacity="1" stop-color="rgb(9.877014%, 64.787292%, 84.735107%)" offset="0.574219"/><stop stop-opacity="1" stop-color="rgb(9.910583%, 65.032959%, 84.803772%)" offset="0.578125"/><stop stop-opacity="1" stop-color="rgb(9.944153%, 65.2771%, 84.872437%)" offset="0.582031"/><stop stop-opacity="1" stop-color="rgb(9.977722%, 65.522766%, 84.941101%)" offset="0.585938"/><stop stop-opacity="1" stop-color="rgb(10.011292%, 65.768433%, 85.009766%)" offset="0.589844"/><stop stop-opacity="1" stop-color="rgb(10.046387%, 66.014099%, 85.07843%)" offset="0.59375"/><stop stop-opacity="1" stop-color="rgb(10.079956%, 66.25824%, 85.147095%)" offset="0.597656"/><stop stop-opacity="1" stop-color="rgb(10.113525%, 66.503906%, 85.215759%)" offset="0.601562"/><stop stop-opacity="1" stop-color="rgb(10.147095%, 66.748047%, 85.284424%)" offset="0.605469"/><stop stop-opacity="1" stop-color="rgb(10.180664%, 66.993713%, 85.353088%)" offset="0.609375"/><stop stop-opacity="1" stop-color="rgb(10.214233%, 67.237854%, 85.421753%)" offset="0.613281"/><stop stop-opacity="1" stop-color="rgb(10.247803%, 67.483521%, 85.491943%)" offset="0.617188"/><stop stop-opacity="1" stop-color="rgb(10.281372%, 67.729187%, 85.560608%)" offset="0.621094"/><stop stop-opacity="1" stop-color="rgb(10.314941%, 67.974854%, 85.629272%)" offset="0.625"/><stop stop-opacity="1" stop-color="rgb(10.348511%, 68.218994%, 85.697937%)" offset="0.628906"/><stop stop-opacity="1" stop-color="rgb(10.383606%, 68.464661%, 85.766602%)" offset="0.632812"/><stop stop-opacity="1" stop-color="rgb(10.417175%, 68.708801%, 85.835266%)" offset="0.636719"/><stop stop-opacity="1" stop-color="rgb(10.450745%, 68.954468%, 85.903931%)" offset="0.640625"/><stop stop-opacity="1" stop-color="rgb(10.484314%, 69.200134%, 85.972595%)" offset="0.644531"/><stop stop-opacity="1" stop-color="rgb(10.517883%, 69.445801%, 86.04126%)" offset="0.648438"/><stop stop-opacity="1" stop-color="rgb(10.551453%, 69.689941%, 86.109924%)" offset="0.652344"/><stop stop-opacity="1" stop-color="rgb(10.585022%, 69.935608%, 86.178589%)" offset="0.65625"/><stop stop-opacity="1" stop-color="rgb(10.618591%, 70.179749%, 86.247253%)" offset="0.660156"/><stop stop-opacity="1" stop-color="rgb(10.652161%, 70.425415%, 86.315918%)" offset="0.664062"/><stop stop-opacity="1" stop-color="rgb(10.68573%, 70.671082%, 86.384583%)" offset="0.667969"/><stop stop-opacity="1" stop-color="rgb(10.719299%, 70.916748%, 86.453247%)" offset="0.671875"/><stop stop-opacity="1" stop-color="rgb(10.752869%, 71.160889%, 86.521912%)" offset="0.675781"/><stop stop-opacity="1" stop-color="rgb(10.787964%, 71.406555%, 86.590576%)" offset="0.679688"/><stop stop-opacity="1" stop-color="rgb(10.821533%, 71.650696%, 86.659241%)" offset="0.683594"/><stop stop-opacity="1" stop-color="rgb(10.855103%, 71.896362%, 86.727905%)" offset="0.6875"/><stop stop-opacity="1" stop-color="rgb(10.888672%, 72.142029%, 86.79657%)" offset="0.691406"/><stop stop-opacity="1" stop-color="rgb(10.922241%, 72.387695%, 86.865234%)" offset="0.695312"/><stop stop-opacity="1" stop-color="rgb(10.955811%, 72.631836%, 86.933899%)" offset="0.699219"/><stop stop-opacity="1" stop-color="rgb(10.98938%, 72.877502%, 87.004089%)" offset="0.703125"/><stop stop-opacity="1" stop-color="rgb(11.022949%, 73.121643%, 87.072754%)" offset="0.707031"/><stop stop-opacity="1" stop-color="rgb(11.056519%, 73.36731%, 87.141418%)" offset="0.710938"/><stop stop-opacity="1" stop-color="rgb(11.090088%, 73.612976%, 87.210083%)" offset="0.714844"/><stop stop-opacity="1" stop-color="rgb(11.123657%, 73.858643%, 87.278748%)" offset="0.71875"/><stop stop-opacity="1" stop-color="rgb(11.157227%, 74.102783%, 87.347412%)" offset="0.722656"/><stop stop-opacity="1" stop-color="rgb(11.192322%, 74.34845%, 87.416077%)" offset="0.726562"/><stop stop-opacity="1" stop-color="rgb(11.225891%, 74.59259%, 87.484741%)" offset="0.730469"/><stop stop-opacity="1" stop-color="rgb(11.25946%, 74.838257%, 87.553406%)" offset="0.734375"/><stop stop-opacity="1" stop-color="rgb(11.29303%, 75.083923%, 87.62207%)" offset="0.738281"/><stop stop-opacity="1" stop-color="rgb(11.326599%, 75.32959%, 87.690735%)" offset="0.742187"/><stop stop-opacity="1" stop-color="rgb(11.360168%, 75.57373%, 87.759399%)" offset="0.746094"/><stop stop-opacity="1" stop-color="rgb(11.393738%, 75.819397%, 87.828064%)" offset="0.75"/><stop stop-opacity="1" stop-color="rgb(11.427307%, 76.063538%, 87.896729%)" offset="0.753906"/><stop stop-opacity="1" stop-color="rgb(11.460876%, 76.309204%, 87.965393%)" offset="0.757813"/><stop stop-opacity="1" stop-color="rgb(11.494446%, 76.554871%, 88.034058%)" offset="0.761719"/><stop stop-opacity="1" stop-color="rgb(11.529541%, 76.800537%, 88.102722%)" offset="0.765625"/><stop stop-opacity="1" stop-color="rgb(11.56311%, 77.044678%, 88.171387%)" offset="0.769531"/><stop stop-opacity="1" stop-color="rgb(11.59668%, 77.290344%, 88.240051%)" offset="0.773438"/><stop stop-opacity="1" stop-color="rgb(11.630249%, 77.534485%, 88.308716%)" offset="0.777344"/><stop stop-opacity="1" stop-color="rgb(11.663818%, 77.780151%, 88.37738%)" offset="0.78125"/><stop stop-opacity="1" stop-color="rgb(11.697388%, 78.025818%, 88.446045%)" offset="0.785156"/><stop stop-opacity="1" stop-color="rgb(11.730957%, 78.271484%, 88.514709%)" offset="0.789062"/><stop stop-opacity="1" stop-color="rgb(11.764526%, 78.515625%, 88.583374%)" offset="0.792969"/><stop stop-opacity="1" stop-color="rgb(11.798096%, 78.761292%, 88.653564%)" offset="0.796875"/><stop stop-opacity="1" stop-color="rgb(11.831665%, 79.005432%, 88.722229%)" offset="0.800781"/><stop stop-opacity="1" stop-color="rgb(11.865234%, 79.251099%, 88.790894%)" offset="0.804688"/><stop stop-opacity="1" stop-color="rgb(11.898804%, 79.496765%, 88.859558%)" offset="0.808594"/><stop stop-opacity="1" stop-color="rgb(11.933899%, 79.742432%, 88.928223%)" offset="0.8125"/><stop stop-opacity="1" stop-color="rgb(11.967468%, 79.986572%, 88.996887%)" offset="0.816406"/><stop stop-opacity="1" stop-color="rgb(12.001038%, 80.232239%, 89.065552%)" offset="0.820312"/><stop stop-opacity="1" stop-color="rgb(12.034607%, 80.476379%, 89.134216%)" offset="0.824219"/><stop stop-opacity="1" stop-color="rgb(12.068176%, 80.722046%, 89.202881%)" offset="0.828125"/><stop stop-opacity="1" stop-color="rgb(12.101746%, 80.967712%, 89.271545%)" offset="0.832031"/><stop stop-opacity="1" stop-color="rgb(12.135315%, 81.213379%, 89.34021%)" offset="0.835938"/><stop stop-opacity="1" stop-color="rgb(12.168884%, 81.45752%, 89.408875%)" offset="0.839844"/><stop stop-opacity="1" stop-color="rgb(12.202454%, 81.703186%, 89.477539%)" offset="0.84375"/><stop stop-opacity="1" stop-color="rgb(12.236023%, 81.947327%, 89.546204%)" offset="0.847656"/><stop stop-opacity="1" stop-color="rgb(12.269592%, 82.192993%, 89.614868%)" offset="0.851562"/><stop stop-opacity="1" stop-color="rgb(12.303162%, 82.43866%, 89.683533%)" offset="0.855469"/><stop stop-opacity="1" stop-color="rgb(12.338257%, 82.684326%, 89.752197%)" offset="0.859375"/><stop stop-opacity="1" stop-color="rgb(12.371826%, 82.928467%, 89.820862%)" offset="0.863281"/><stop stop-opacity="1" stop-color="rgb(12.405396%, 83.174133%, 89.889526%)" offset="0.867188"/><stop stop-opacity="1" stop-color="rgb(12.438965%, 83.418274%, 89.958191%)" offset="0.871094"/><stop stop-opacity="1" stop-color="rgb(12.472534%, 83.66394%, 90.026855%)" offset="0.875"/><stop stop-opacity="1" stop-color="rgb(12.506104%, 83.909607%, 90.09552%)" offset="0.878906"/><stop stop-opacity="1" stop-color="rgb(12.539673%, 84.155273%, 90.164185%)" offset="0.882812"/><stop stop-opacity="1" stop-color="rgb(12.573242%, 84.399414%, 90.232849%)" offset="0.886719"/><stop stop-opacity="1" stop-color="rgb(12.606812%, 84.645081%, 90.30304%)" offset="0.890625"/><stop stop-opacity="1" stop-color="rgb(12.640381%, 84.889221%, 90.371704%)" offset="0.894531"/><stop stop-opacity="1" stop-color="rgb(12.675476%, 85.134888%, 90.440369%)" offset="0.898438"/><stop stop-opacity="1" stop-color="rgb(12.709045%, 85.380554%, 90.509033%)" offset="0.902344"/><stop stop-opacity="1" stop-color="rgb(12.742615%, 85.626221%, 90.577698%)" offset="0.90625"/><stop stop-opacity="1" stop-color="rgb(12.776184%, 85.870361%, 90.646362%)" offset="0.910156"/><stop stop-opacity="1" stop-color="rgb(12.809753%, 86.116028%, 90.715027%)" offset="0.914062"/><stop stop-opacity="1" stop-color="rgb(12.843323%, 86.360168%, 90.783691%)" offset="0.917969"/><stop stop-opacity="1" stop-color="rgb(12.876892%, 86.605835%, 90.852356%)" offset="0.921875"/><stop stop-opacity="1" stop-color="rgb(12.90741%, 86.831665%, 90.914917%)" offset="0.925781"/><stop stop-opacity="1" stop-color="rgb(12.939453%, 87.059021%, 90.979004%)" offset="0.929688"/><stop stop-opacity="1" stop-color="rgb(12.939453%, 87.059021%, 90.979004%)" offset="0.9375"/><stop stop-opacity="1" stop-color="rgb(12.939453%, 87.059021%, 90.979004%)" offset="1"/></linearGradient><clipPath id="c3aa2fe4c0"><rect x="0" width="557" y="0" height="55"/></clipPath></defs><g clip-path="url(#149265bc5a)"><g clip-path="url(#7e7ba6ea51)"><path fill="url(#f59d7b1f15)" d="M 349.039062 598.917969 L 349.039062 802.03125 L 552.152344 802.03125 L 552.152344 598.917969 Z M 349.039062 598.917969 " fill-rule="nonzero"/></g></g><g transform="matrix(1, 0, 0, 1, 588, 732)"><g clip-path="url(#c3aa2fe4c0)"><g fill="#ffffff" fill-opacity="1"><g transform="translate(0.794631, 38.476986)"><g><path d="M 24.089844 -26.28125 L 10.949219 -26.28125 C 9.753906 -26.28125 8.722656 -25.851562 7.863281 -24.988281 C 7 -24.125 6.570312 -23.097656 6.570312 -21.898438 L 6.570312 -13.140625 L 28.46875 -13.140625 L 28.46875 -21.898438 C 28.46875 -23.097656 28.039062 -24.125 27.179688 -24.988281 C 26.316406 -25.851562 25.289062 -26.28125 24.089844 -26.28125 Z M 32.851562 -21.898438 L 32.851562 0 L 28.46875 0 L 28.46875 -8.761719 L 6.570312 -8.761719 L 6.570312 0 L 2.191406 0 L 2.191406 -21.898438 C 2.191406 -23.449219 2.578125 -24.886719 3.351562 -26.214844 C 4.125 -27.542969 5.175781 -28.617188 6.503906 -29.433594 C 7.832031 -30.25 9.316406 -30.660156 10.949219 -30.660156 L 24.089844 -30.660156 C 25.667969 -30.660156 27.105469 -30.265625 28.40625 -29.476562 C 29.703125 -28.6875 30.761719 -27.636719 31.582031 -26.324219 C 32.398438 -25.011719 32.820312 -23.535156 32.851562 -21.898438 Z M 32.851562 -21.898438 "/></g></g></g><g fill="#ffffff" fill-opacity="1"><g transform="translate(48.379676, 38.476986)"><g><path d="M 6.570312 -30.660156 L 6.570312 -4.378906 L 32.851562 -4.378906 L 32.851562 0 L 2.191406 0 L 2.191406 -30.660156 Z M 6.570312 -30.660156 "/></g></g></g><g fill="#ffffff" fill-opacity="1"><g transform="translate(93.776387, 38.476986)"><g><path d="M 2.191406 -30.660156 L 6.570312 -30.660156 L 6.570312 0 L 2.191406 0 Z M 2.191406 -30.660156 "/></g></g></g><g fill="#ffffff" fill-opacity="1"><g transform="translate(115.101385, 38.476986)"><g/></g></g><g fill="#ffffff" fill-opacity="1"><g transform="translate(145.179764, 38.476986)"><g><path d="M 24.089844 -26.28125 L 10.949219 -26.28125 C 9.753906 -26.28125 8.722656 -25.851562 7.863281 -24.988281 C 7 -24.125 6.570312 -23.097656 6.570312 -21.898438 L 6.570312 -13.140625 L 28.46875 -13.140625 L 28.46875 -21.898438 C 28.46875 -23.097656 28.039062 -24.125 27.179688 -24.988281 C 26.316406 -25.851562 25.289062 -26.28125 24.089844 -26.28125 Z M 32.851562 -21.898438 L 32.851562 0 L 28.46875 0 L 28.46875 -8.761719 L 6.570312 -8.761719 L 6.570312 0 L 2.191406 0 L 2.191406 -21.898438 C 2.191406 -23.449219 2.578125 -24.886719 3.351562 -26.214844 C 4.125 -27.542969 5.175781 -28.617188 6.503906 -29.433594 C 7.832031 -30.25 9.316406 -30.660156 10.949219 -30.660156 L 24.089844 -30.660156 C 25.667969 -30.660156 27.105469 -30.265625 28.40625 -29.476562 C 29.703125 -28.6875 30.761719 -27.636719 31.582031 -26.324219 C 32.398438 -25.011719 32.820312 -23.535156 32.851562 -21.898438 Z M 32.851562 -21.898438 "/></g></g></g><g fill="#ffffff" fill-opacity="1"><g transform="translate(192.764809, 38.476986)"><g><path d="M 6.570312 -30.660156 L 6.570312 -4.378906 L 32.851562 -4.378906 L 32.851562 0 L 2.191406 0 L 2.191406 -30.660156 Z M 6.570312 -30.660156 "/></g></g></g><g fill="#ffffff" fill-opacity="1"><g transform="translate(238.161521, 38.476986)"><g><path d="M 0.875 -17.519531 L 20.585938 -17.519531 L 20.585938 -13.140625 L 0.875 -13.140625 Z M 0.875 -17.519531 "/></g></g></g><g fill="#ffffff" fill-opacity="1"><g transform="translate(272.17889, 38.476986)"><g><path d="M 9.636719 -4.378906 L 22.777344 -4.378906 C 23.972656 -4.378906 25.003906 -4.8125 25.863281 -5.671875 C 26.726562 -6.535156 27.15625 -7.5625 27.15625 -8.761719 L 27.15625 -30.660156 L 31.535156 -30.660156 L 31.535156 -8.761719 C 31.535156 -7.210938 31.148438 -5.773438 30.375 -4.445312 C 29.601562 -3.117188 28.550781 -2.042969 27.222656 -1.226562 C 25.894531 -0.410156 24.410156 0 22.777344 0 L 9.636719 0 C 8.058594 0 6.613281 -0.386719 5.300781 -1.160156 C 3.984375 -1.933594 2.933594 -2.984375 2.144531 -4.3125 C 1.359375 -5.644531 0.933594 -7.125 0.875 -8.761719 L 5.257812 -8.761719 C 5.257812 -7.5625 5.6875 -6.535156 6.546875 -5.671875 C 7.410156 -4.8125 8.4375 -4.378906 9.636719 -4.378906 Z M 9.636719 -4.378906 "/></g></g></g><g fill="#ffffff" fill-opacity="1"><g transform="translate(318.450954, 38.476986)"><g><path d="M 28.03125 -8.761719 L 28.03125 -21.898438 C 28.03125 -23.097656 27.601562 -24.125 26.742188 -24.988281 C 25.878906 -25.851562 24.847656 -26.28125 23.652344 -26.28125 L 10.511719 -26.28125 C 9.316406 -26.28125 8.285156 -25.851562 7.425781 -24.988281 C 6.5625 -24.125 6.132812 -23.097656 6.132812 -21.898438 L 6.132812 -8.761719 C 6.132812 -7.5625 6.5625 -6.535156 7.425781 -5.671875 C 8.285156 -4.8125 9.316406 -4.378906 10.511719 -4.378906 L 23.652344 -4.378906 C 24.847656 -4.378906 25.878906 -4.8125 26.742188 -5.671875 C 27.601562 -6.535156 28.03125 -7.5625 28.03125 -8.761719 Z M 32.414062 -21.898438 L 32.414062 -8.761719 C 32.414062 -7.152344 32.019531 -5.6875 31.230469 -4.359375 C 30.441406 -3.03125 29.382812 -1.972656 28.054688 -1.183594 C 26.726562 -0.394531 25.257812 0 23.652344 0 L 10.511719 0 C 8.90625 0 7.4375 -0.394531 6.109375 -1.183594 C 4.78125 -1.972656 3.722656 -3.03125 2.933594 -4.359375 C 2.144531 -5.6875 1.753906 -7.152344 1.753906 -8.761719 L 1.753906 -21.898438 C 1.753906 -23.507812 2.144531 -24.972656 2.933594 -26.300781 C 3.722656 -27.632812 4.78125 -28.6875 6.109375 -29.476562 C 7.4375 -30.265625 8.90625 -30.660156 10.511719 -30.660156 L 23.652344 -30.660156 C 25.199219 -30.660156 26.636719 -30.257812 27.964844 -29.457031 C 29.296875 -28.652344 30.367188 -27.59375 31.1875 -26.28125 C 32.003906 -24.964844 32.414062 -23.507812 32.414062 -21.898438 Z M 32.414062 -21.898438 "/></g></g></g><g fill="#ffffff" fill-opacity="1"><g transform="translate(365.160646, 38.476986)"><g><path d="M 28.46875 -8.761719 L 28.46875 -21.898438 C 28.46875 -23.097656 28.039062 -24.125 27.179688 -24.988281 C 26.316406 -25.851562 25.289062 -26.28125 24.089844 -26.28125 L 6.570312 -26.28125 L 6.570312 -4.378906 L 24.089844 -4.378906 C 25.289062 -4.378906 26.316406 -4.8125 27.179688 -5.671875 C 28.039062 -6.535156 28.46875 -7.5625 28.46875 -8.761719 Z M 32.851562 -21.898438 L 32.851562 -8.761719 C 32.851562 -7.210938 32.464844 -5.773438 31.691406 -4.445312 C 30.914062 -3.117188 29.863281 -2.042969 28.535156 -1.226562 C 27.207031 -0.410156 25.726562 0 24.089844 0 L 2.191406 0 L 2.191406 -30.660156 L 24.089844 -30.660156 C 25.667969 -30.660156 27.105469 -30.265625 28.40625 -29.476562 C 29.703125 -28.6875 30.761719 -27.636719 31.582031 -26.324219 C 32.398438 -25.011719 32.820312 -23.535156 32.851562 -21.898438 Z M 32.851562 -21.898438 "/></g></g></g><g fill="#ffffff" fill-opacity="1"><g transform="translate(412.308015, 38.476986)"><g><path d="M 28.46875 -17.519531 L 28.46875 -21.898438 C 28.46875 -23.097656 28.039062 -24.125 27.179688 -24.988281 C 26.316406 -25.851562 25.289062 -26.28125 24.089844 -26.28125 L 6.570312 -26.28125 L 6.570312 -13.140625 L 24.089844 -13.140625 C 25.289062 -13.140625 26.316406 -13.570312 27.179688 -14.433594 C 28.039062 -15.292969 28.46875 -16.324219 28.46875 -17.519531 Z M 32.851562 0 L 29.742188 0 L 20.980469 -8.761719 L 6.570312 -8.761719 L 6.570312 0 L 2.191406 0 L 2.191406 -30.660156 L 24.089844 -30.660156 C 25.636719 -30.660156 27.074219 -30.265625 28.40625 -29.476562 C 29.734375 -28.6875 30.804688 -27.636719 31.625 -26.324219 C 32.441406 -25.011719 32.851562 -23.535156 32.851562 -21.898438 L 32.851562 -17.519531 C 32.851562 -15.652344 32.289062 -13.949219 31.164062 -12.417969 C 30.039062 -10.882812 28.574219 -9.8125 26.761719 -9.199219 L 32.851562 -3.109375 Z M 32.851562 0 "/></g></g></g><g fill="#ffffff" fill-opacity="1"><g transform="translate(459.455383, 38.476986)"><g><path d="M 24.089844 -26.28125 L 10.949219 -26.28125 C 9.753906 -26.28125 8.722656 -25.851562 7.863281 -24.988281 C 7 -24.125 6.570312 -23.097656 6.570312 -21.898438 L 6.570312 -13.140625 L 28.46875 -13.140625 L 28.46875 -21.898438 C 28.46875 -23.097656 28.039062 -24.125 27.179688 -24.988281 C 26.316406 -25.851562 25.289062 -26.28125 24.089844 -26.28125 Z M 32.851562 -21.898438 L 32.851562 0 L 28.46875 0 L 28.46875 -8.761719 L 6.570312 -8.761719 L 6.570312 0 L 2.191406 0 L 2.191406 -21.898438 C 2.191406 -23.449219 2.578125 -24.886719 3.351562 -26.214844 C 4.125 -27.542969 5.175781 -28.617188 6.503906 -29.433594 C 7.832031 -30.25 9.316406 -30.660156 10.949219 -30.660156 L 24.089844 -30.660156 C 25.667969 -30.660156 27.105469 -30.265625 28.40625 -29.476562 C 29.703125 -28.6875 30.761719 -27.636719 31.582031 -26.324219 C 32.398438 -25.011719 32.820312 -23.535156 32.851562 -21.898438 Z M 32.851562 -21.898438 "/></g></g></g><g fill="#ffffff" fill-opacity="1"><g transform="translate(507.040428, 38.476986)"><g><path d="M 6.570312 -30.660156 L 6.570312 -17.519531 L 28.46875 -17.519531 L 28.46875 -30.660156 L 32.851562 -30.660156 L 32.851562 0 L 28.46875 0 L 28.46875 -13.140625 L 6.570312 -13.140625 L 6.570312 0 L 2.191406 0 L 2.191406 -30.660156 Z M 6.570312 -30.660156 "/></g></g></g></g></g><g fill="#ffffff" fill-opacity="1"><g transform="translate(579.320791, 702.744759)"><g><path d="M 81.140625 -66.453125 L 81.140625 0 L 64.9375 0 L 64.9375 -39.859375 L 50.078125 0 L 37.015625 0 L 22.0625 -39.953125 L 22.0625 0 L 5.875 0 L 5.875 -66.453125 L 25 -66.453125 L 43.640625 -20.453125 L 62.109375 -66.453125 Z M 81.140625 -66.453125 "/></g></g></g><g fill="#ffffff" fill-opacity="1"><g transform="translate(666.222422, 702.744759)"><g><path d="M 37.296875 0.65625 C 31.046875 0.65625 25.316406 -0.789062 20.109375 -3.6875 C 14.910156 -6.59375 10.78125 -10.648438 7.71875 -15.859375 C 4.65625 -21.066406 3.125 -26.921875 3.125 -33.421875 C 3.125 -39.921875 4.65625 -45.757812 7.71875 -50.9375 C 10.78125 -56.113281 14.910156 -60.148438 20.109375 -63.046875 C 25.316406 -65.953125 31.046875 -67.40625 37.296875 -67.40625 C 43.546875 -67.40625 49.273438 -65.953125 54.484375 -63.046875 C 59.691406 -60.148438 63.789062 -56.113281 66.78125 -50.9375 C 69.78125 -45.757812 71.28125 -39.921875 71.28125 -33.421875 C 71.28125 -26.921875 69.765625 -21.066406 66.734375 -15.859375 C 63.710938 -10.648438 59.613281 -6.59375 54.4375 -3.6875 C 49.257812 -0.789062 43.546875 0.65625 37.296875 0.65625 Z M 37.296875 -14.109375 C 42.597656 -14.109375 46.84375 -15.875 50.03125 -19.40625 C 53.21875 -22.9375 54.8125 -27.609375 54.8125 -33.421875 C 54.8125 -39.285156 53.21875 -43.96875 50.03125 -47.46875 C 46.84375 -50.976562 42.597656 -52.734375 37.296875 -52.734375 C 31.929688 -52.734375 27.65625 -50.992188 24.46875 -47.515625 C 21.28125 -44.046875 19.6875 -39.347656 19.6875 -33.421875 C 19.6875 -27.546875 21.28125 -22.859375 24.46875 -19.359375 C 27.65625 -15.859375 31.929688 -14.109375 37.296875 -14.109375 Z M 37.296875 -14.109375 "/></g></g></g><g fill="#ffffff" fill-opacity="1"><g transform="translate(740.628399, 702.744759)"><g><path d="M 39.765625 0 L 25.9375 -25.09375 L 22.0625 -25.09375 L 22.0625 0 L 5.875 0 L 5.875 -66.453125 L 33.046875 -66.453125 C 38.273438 -66.453125 42.734375 -65.535156 46.421875 -63.703125 C 50.117188 -61.878906 52.882812 -59.375 54.71875 -56.1875 C 56.550781 -53 57.46875 -49.445312 57.46875 -45.53125 C 57.46875 -41.113281 56.21875 -37.171875 53.71875 -33.703125 C 51.226562 -30.234375 47.554688 -27.769531 42.703125 -26.3125 L 58.03125 0 Z M 22.0625 -36.546875 L 32.09375 -36.546875 C 35.0625 -36.546875 37.285156 -37.269531 38.765625 -38.71875 C 40.253906 -40.164062 41 -42.21875 41 -44.875 C 41 -47.394531 40.253906 -49.378906 38.765625 -50.828125 C 37.285156 -52.285156 35.0625 -53.015625 32.09375 -53.015625 L 22.0625 -53.015625 Z M 22.0625 -36.546875 "/></g></g></g><g fill="#ffffff" fill-opacity="1"><g transform="translate(802.34939, 702.744759)"><g><path d="M 53.671875 -66.453125 L 53.671875 -53.484375 L 36.0625 -53.484375 L 36.0625 0 L 19.875 0 L 19.875 -53.484375 L 2.265625 -53.484375 L 2.265625 -66.453125 Z M 53.671875 -66.453125 "/></g></g></g><g fill="#ffffff" fill-opacity="1"><g transform="translate(858.295864, 702.744759)"><g><path d="M 47.234375 -11.734375 L 22.4375 -11.734375 L 18.46875 0 L 1.515625 0 L 25.5625 -66.453125 L 44.3125 -66.453125 L 68.359375 0 L 51.21875 0 Z M 43.078125 -24.234375 L 34.84375 -48.5625 L 26.703125 -24.234375 Z M 43.078125 -24.234375 "/></g></g></g><g fill="#ffffff" fill-opacity="1"><g transform="translate(928.063299, 702.744759)"><g><path d="M 30.765625 -66.453125 C 37.773438 -66.453125 43.898438 -65.0625 49.140625 -62.28125 C 54.378906 -59.507812 58.429688 -55.613281 61.296875 -50.59375 C 64.171875 -45.582031 65.609375 -39.796875 65.609375 -33.234375 C 65.609375 -26.734375 64.171875 -20.957031 61.296875 -15.90625 C 58.429688 -10.851562 54.363281 -6.9375 49.09375 -4.15625 C 43.820312 -1.382812 37.710938 0 30.765625 0 L 5.875 0 L 5.875 -66.453125 Z M 29.734375 -14.015625 C 35.847656 -14.015625 40.609375 -15.6875 44.015625 -19.03125 C 47.429688 -22.375 49.140625 -27.109375 49.140625 -33.234375 C 49.140625 -39.347656 47.429688 -44.109375 44.015625 -47.515625 C 40.609375 -50.929688 35.847656 -52.640625 29.734375 -52.640625 L 22.0625 -52.640625 L 22.0625 -14.015625 Z M 29.734375 -14.015625 "/></g></g></g><g fill="#ffffff" fill-opacity="1"><g transform="translate(996.884078, 702.744759)"><g><path d="M 63.4375 -66.453125 L 63.4375 0 L 47.234375 0 L 47.234375 -27.359375 L 22.0625 -27.359375 L 22.0625 0 L 5.875 0 L 5.875 -66.453125 L 22.0625 -66.453125 L 22.0625 -40.421875 L 47.234375 -40.421875 L 47.234375 -66.453125 Z M 63.4375 -66.453125 "/></g></g></g><g fill="#ffffff" fill-opacity="1"><g transform="translate(1066.083566, 702.744759)"><g><path d="M 47.234375 -11.734375 L 22.4375 -11.734375 L 18.46875 0 L 1.515625 0 L 25.5625 -66.453125 L 44.3125 -66.453125 L 68.359375 0 L 51.21875 0 Z M 43.078125 -24.234375 L 34.84375 -48.5625 L 26.703125 -24.234375 Z M 43.078125 -24.234375 "/></g></g></g></svg>